<svg xmlns="http://www.w3.org/2000/svg" width="84" height="72" viewBox="0 0 84 72">
  <g fill="none" fill-rule="evenodd">
    <path fill="#221E1F" d="M13.866 35.16H11.44l-.222-1.24c-.99 1.098-2.688 1.48-4.022 1.48C2.83 35.4 0 32.773 0 29.48c0-3.296 2.83-5.922 7.196-5.922 2.992 0 6.185 1.258 6.53 4.107h-3.76c-.122-.97-1.335-1.56-2.85-1.56-2.426 0-3.356 1.687-3.356 3.375 0 1.686.93 3.373 3.355 3.373 1.86 0 3.113-.685 3.315-1.72H7.802V28.94h6.064v6.222zm8.447-4.98c-.06-.924-.89-1.687-2.042-1.687-1.21 0-2.02.683-2.22 1.686h4.27zm-4.266 1.51c.06 1.13.89 1.88 2.345 1.88.83 0 1.637-.303 1.96-.908h3.215c-.627 1.91-2.87 2.738-5.215 2.738-3.416 0-5.74-1.624-5.74-4.393 0-2.53 2.566-4.345 5.66-4.345 3.758 0 5.638 2.228 5.477 5.03h-7.71zm13.756 1.64c1.597 0 2.102-1.242 2.102-2.292 0-1.05-.505-2.307-2.102-2.307s-2.083 1.26-2.083 2.31.486 2.3 2.083 2.3m0-6.67c3.254 0 5.538 1.9 5.538 4.38s-2.28 4.36-5.53 4.36-5.52-1.88-5.52-4.36 2.27-4.37 5.52-4.37m6.11.24h3.34v1.45h.04c.51-1.05 1.68-1.61 3.16-1.61.27 0 .55.02.81.07v2.47c-.44-.09-.85-.16-1.31-.16-1.7 0-2.59.93-2.59 1.96v4.09h-3.44V26.9zm12.98 1.83c-1.51 0-2 1.05-2 2.07 0 .97.57 1.94 1.98 1.94 1.46 0 2.09-.89 2.09-1.92 0-1.05-.52-2.08-2.06-2.08zm5.32 5.43c0 1.35-.32 3.9-5.23 3.9-2.44 0-4.75-.43-5.15-2.64h3.44c.08.37.26.59.59.72.31.13.73.18 1.26.18 1.64 0 1.8-.9 1.8-1.92v-.78h-.04c-.622.768-1.672 1.21-2.783 1.21-3.175 0-4.61-1.78-4.61-4.102 0-2.197 1.636-4.044 4.61-4.044 1.25 0 2.2.43 2.81 1.277h.04V26.9h3.295v7.258zm1.31-8.29h3.44V23.8h-3.44v2.07zm0 9.29h3.44V26.9h-3.44v8.26zm8.9-1.43c1.64 0 2.19-.73 2.11-2.43-.48.24-1.37.29-2.12.45-.76.14-1.41.4-1.41 1.05 0 .67.67.94 1.44.94zm-4.44-4.28c.06-1.08.71-1.78 1.64-2.21.93-.41 2.15-.57 3.34-.57 2.49 0 4.89.43 4.89 2.77v3.61c0 .7 0 1.46.41 2.12H68.8c-.12-.25-.16-.5-.2-.78-.89.74-2.204 1.02-3.457 1.02-2 0-3.577-.79-3.577-2.5 0-2.69 3.72-2.48 6.105-2.86.59-.09.91-.25.91-.76 0-.62-.95-.86-1.66-.86-.95 0-1.55.336-1.72 1.036h-3.22zm-20.97 10.3h-4.3v8.82h-3.76v-8.82h-4.31v-2.54h12.37"/>
    <path fill="#221E1F" d="M45.688 43.607c-.06-.924-.89-1.687-2.04-1.687-1.214 0-2.023.683-2.224 1.687h4.264zm-4.264 1.51c.06 1.132.888 1.88 2.343 1.88.83 0 1.638-.303 1.962-.907h3.21c-.63 1.91-2.87 2.738-5.22 2.738-3.42 0-5.74-1.624-5.74-4.394 0-2.53 2.56-4.345 5.66-4.345 3.76 0 5.64 2.22 5.47 5.02h-7.7zm15.8-1.765c-.02-.7-.81-1.194-1.678-1.194-1.92 0-2.223 1.29-2.223 2.436 0 1.065.586 2.164 2.04 2.164 1.194 0 1.8-.54 1.962-1.417h3.336c-.3 2.22-2.48 3.49-5.27 3.49-3.15 0-5.5-1.7-5.5-4.23 0-2.62 2.13-4.5 5.5-4.5 2.61 0 4.93 1.09 5.18 3.27h-3.34zm4.14-6.127H64.8v4.234h.04c.525-.85 1.94-1.37 3.193-1.37 3.497 0 3.78 2 3.78 3.2v5.29h-3.436v-3.99c0-1.13.162-2.28-1.718-2.28-1.3 0-1.86.86-1.86 1.76v4.5h-3.44V37.22z"/>
    <path stroke="#BB9F6D" stroke-width=".796" d="M76.42 37.857l3.56 13.133h-3.56z"/>
    <path stroke="#BB9F6D" stroke-width=".796" d="M83.537 37.857l-3.56 13.132h3.56zm-1.78 6.43l-1.78-26.27-1.778 26.27m-1.78 9.385h7.11v-1.338h-7.11z"/>
  </g>
</svg>
